<svg width="24" height="24" viewBox="0 0 24 24" fill="none" xmlns="http://www.w3.org/2000/svg">
<path d="M12.89 5.87988H5.10999C3.39999 5.87988 2 7.27987 2 8.98987V20.3499C2 21.7999 3.04 22.4199 4.31 21.7099L8.23999 19.5199C8.65999 19.2899 9.34 19.2899 9.75 19.5199L13.68 21.7099C14.95 22.4199 15.99 21.7999 15.99 20.3499V8.98987C16 7.27987 14.6 5.87988 12.89 5.87988Z" fill="white" stroke="white" stroke-width="1.24609" stroke-linecap="round" stroke-linejoin="round"/>
<path d="M16 8.98987V20.3499C16 21.7999 14.96 22.4099 13.69 21.7099L9.76001 19.5199C9.34001 19.2899 8.65999 19.2899 8.23999 19.5199L4.31 21.7099C3.04 22.4099 2 21.7999 2 20.3499V8.98987C2 7.27987 3.39999 5.87988 5.10999 5.87988H12.89C14.6 5.87988 16 7.27987 16 8.98987Z" fill="white" stroke="#5B52B6" stroke-width="1.24609" stroke-linecap="round" stroke-linejoin="round"/>
<path d="M22 5.1095V16.4695C22 17.9195 20.96 18.5295 19.69 17.8295L16 15.7695V8.9895C16 7.2795 14.6 5.87952 12.89 5.87952H8V5.1095C8 3.3995 9.39999 1.99951 11.11 1.99951H18.89C20.6 1.99951 22 3.3995 22 5.1095Z" fill="white" stroke="#5B52B6" stroke-width="1.24609" stroke-linecap="round" stroke-linejoin="round"/>
</svg>
