<svg width="37" height="37" viewBox="0 0 37 37" fill="none" xmlns="http://www.w3.org/2000/svg">
<rect width="37" height="37" rx="18.5" fill="#DDFDFC"/>
<path d="M27.0891 13.98C26.2391 13.04 24.8291 12.57 22.7591 12.57H22.5191V12.53C22.5191 10.85 22.5191 8.77002 18.7591 8.77002H17.2391C13.4791 8.77002 13.4791 10.85 13.4791 12.53V12.57H13.2391C11.1691 12.57 9.74906 13.04 8.90906 13.98C7.91906 15.09 7.94906 16.56 8.04906 17.57L8.05906 17.64L8.12814 18.446C8.14134 18.5999 8.22488 18.7392 8.3546 18.8232C8.63829 19.0068 8.94012 19.1995 9.22906 19.36C9.36906 19.45 9.51906 19.53 9.66906 19.61C10.7991 20.23 12.0091 20.72 13.2491 21.06C13.2791 23.65 15.3991 25.75 17.9991 25.75C20.6191 25.75 22.7491 23.62 22.7491 21V20.96C24.0091 20.58 25.2191 20.05 26.3491 19.39C26.4091 19.36 26.4491 19.33 26.4991 19.3C26.8937 19.0855 27.303 18.8048 27.6766 18.54C27.7929 18.4575 27.8678 18.329 27.8832 18.1873L27.9491 17.58C27.9591 17.52 27.9591 17.47 27.9691 17.4C28.0491 16.4 28.0291 15.02 27.0891 13.98ZM14.9091 12.53C14.9091 10.83 14.9091 10.19 17.2391 10.19H18.7591C21.0891 10.19 21.0891 10.83 21.0891 12.53V12.57H14.9091V12.53ZM17.9991 24.25C16.3491 24.25 14.9791 23.01 14.7791 21.41C14.7591 21.28 14.7491 21.14 14.7491 21C14.7491 19.21 16.2091 17.75 17.9991 17.75C19.7891 17.75 21.2491 19.21 21.2491 21C21.2491 21.12 21.2391 21.23 21.2291 21.34V21.35C21.0491 22.98 19.6691 24.25 17.9991 24.25Z" fill="#12D5D5"/>
<path d="M17.4309 23.0299C17.2409 23.0299 17.0509 22.9599 16.9009 22.8099L15.9109 21.8299C15.6209 21.5399 15.6209 21.0599 15.9109 20.7699C16.2009 20.4799 16.6809 20.4799 16.9709 20.7699L17.4509 21.2499L19.0609 19.7699C19.3609 19.4899 19.8409 19.5099 20.1209 19.8099C20.4009 20.1099 20.3809 20.5899 20.0809 20.8699L17.9509 22.8399C17.7909 22.9599 17.6109 23.0299 17.4309 23.0299Z" fill="#12D5D5"/>
<path d="M27.0416 20.7311C27.2903 20.5929 27.6129 20.7931 27.587 21.0765L27.2316 24.9611C27.0216 26.9611 26.2016 29.0011 21.8016 29.0011H14.1816C9.78156 29.0011 8.96156 26.9611 8.76156 24.9711L8.41569 21.2678C8.38884 20.9802 8.69635 20.786 8.95156 20.9211C9.73156 21.3511 10.5416 21.7311 11.3716 22.0311C11.6816 22.1411 11.9016 22.4011 11.9916 22.7211C12.7416 25.3211 15.1616 27.2511 18.0016 27.2511C20.8916 27.2511 23.3316 25.2811 24.0416 22.5811C24.1216 22.2611 24.3416 22.0011 24.6516 21.8811C25.4916 21.5511 26.2916 21.1611 27.0416 20.7311Z" fill="#12D5D5"/>
</svg>
