<svg width="132" height="66" viewBox="0 0 132 66" fill="none" xmlns="http://www.w3.org/2000/svg">
<path d="M8.31285 55.2537C6.88779 55.2537 5.66065 54.9172 4.63144 54.2443C3.60223 53.5713 2.81053 52.6444 2.25634 51.4634C1.70215 50.2825 1.42506 48.9333 1.42506 47.4159C1.42506 45.8721 1.70875 44.5097 2.27614 43.3287C2.85012 42.1412 3.64842 41.2142 4.67103 40.5479C5.70024 39.8749 6.90098 39.5385 8.27326 39.5385C9.34206 39.5385 10.3053 39.7364 11.163 40.1322C12.0206 40.5281 12.7233 41.0823 13.2709 41.7948C13.8185 42.5073 14.1582 43.3386 14.2902 44.2887H11.9547C11.7765 43.5959 11.3807 42.9823 10.7671 42.4479C10.1601 41.907 9.34206 41.6365 8.31285 41.6365C7.40239 41.6365 6.60409 41.874 5.91796 42.349C5.23841 42.8174 4.70731 43.4805 4.32466 44.3381C3.9486 45.1892 3.76057 46.1887 3.76057 47.3367C3.76057 48.511 3.9453 49.5337 4.31476 50.4045C4.69082 51.2754 5.21862 51.9516 5.89816 52.4333C6.5843 52.9149 7.3892 53.1557 8.31285 53.1557C8.91982 53.1557 9.47071 53.0501 9.96552 52.839C10.4603 52.6279 10.8793 52.3244 11.2223 51.9286C11.5654 51.5327 11.8095 51.0577 11.9547 50.5035H14.2902C14.1582 51.4008 13.8317 52.2089 13.3104 52.9281C12.7958 53.6406 12.113 54.208 11.2619 54.6302C10.4174 55.0459 9.43442 55.2537 8.31285 55.2537ZM23.8796 55.2537C22.5074 55.2537 21.3033 54.9271 20.2675 54.274C19.2383 53.6208 18.4334 52.7071 17.8528 51.5327C17.2788 50.3583 16.9919 48.9861 16.9919 47.4159C16.9919 45.8325 17.2788 44.4503 17.8528 43.2693C18.4334 42.0884 19.2383 41.1713 20.2675 40.5182C21.3033 39.865 22.5074 39.5385 23.8796 39.5385C25.2519 39.5385 26.4527 39.865 27.4819 40.5182C28.5177 41.1713 29.3226 42.0884 29.8966 43.2693C30.4771 44.4503 30.7674 45.8325 30.7674 47.4159C30.7674 48.9861 30.4771 50.3583 29.8966 51.5327C29.3226 52.7071 28.5177 53.6208 27.4819 54.274C26.4527 54.9271 25.2519 55.2537 23.8796 55.2537ZM23.8796 53.1557C24.922 53.1557 25.7797 52.8885 26.4527 52.3541C27.1256 51.8197 27.6237 51.1171 27.947 50.2462C28.2703 49.3753 28.4319 48.4319 28.4319 47.4159C28.4319 46.3999 28.2703 45.4531 27.947 44.5756C27.6237 43.6982 27.1256 42.9889 26.4527 42.4479C25.7797 41.907 24.922 41.6365 23.8796 41.6365C22.8372 41.6365 21.9796 41.907 21.3066 42.4479C20.6337 42.9889 20.1356 43.6982 19.8123 44.5756C19.489 45.4531 19.3274 46.3999 19.3274 47.4159C19.3274 48.4319 19.489 49.3753 19.8123 50.2462C20.1356 51.1171 20.6337 51.8197 21.3066 52.3541C21.9796 52.8885 22.8372 53.1557 23.8796 53.1557ZM36.6681 45.7929V54.937H34.3326V39.7364H36.5889V42.1115H36.7868C37.1431 41.3396 37.6841 40.7194 38.4098 40.251C39.1355 39.776 40.0724 39.5385 41.2203 39.5385C42.2495 39.5385 43.1501 39.7496 43.922 40.1718C44.6939 40.5875 45.2943 41.2208 45.7231 42.0719C46.152 42.9164 46.3664 43.9852 46.3664 45.2783V54.937H44.0309V45.4366C44.0309 44.2425 43.7208 43.3122 43.1006 42.6459C42.4805 41.9729 41.6294 41.6365 40.5474 41.6365C39.8019 41.6365 39.1355 41.7981 38.5484 42.1214C37.9678 42.4447 37.5092 42.9164 37.1728 43.5365C36.8363 44.1567 36.6681 44.9088 36.6681 45.7929ZM61.4013 43.1407L59.3033 43.7345C59.1713 43.3848 58.9767 43.045 58.7194 42.7151C58.4687 42.3787 58.1256 42.1016 57.6902 41.8839C57.2547 41.6661 56.6972 41.5573 56.0177 41.5573C55.0875 41.5573 54.3122 41.7717 53.6921 42.2005C53.0785 42.6228 52.7717 43.1605 52.7717 43.8136C52.7717 44.3942 52.9828 44.8527 53.4051 45.1892C53.8273 45.5257 54.4871 45.8061 55.3843 46.0304L57.6407 46.5846C58.9998 46.9145 60.0125 47.4192 60.6788 48.0987C61.3452 48.7717 61.6784 49.6392 61.6784 50.7014C61.6784 51.5723 61.4276 52.3508 60.9262 53.0369C60.4314 53.7231 59.7387 54.2641 58.848 54.6599C57.9574 55.0558 56.9216 55.2537 55.7406 55.2537C54.1902 55.2537 52.907 54.9172 51.891 54.2443C50.8749 53.5713 50.2317 52.5883 49.9612 51.2952L52.178 50.741C52.3891 51.5591 52.7882 52.1727 53.3754 52.5817C53.9692 52.9908 54.7444 53.1953 55.701 53.1953C56.7896 53.1953 57.6539 52.9644 58.2938 52.5025C58.9404 52.0341 59.2637 51.4733 59.2637 50.8202C59.2637 50.2924 59.0789 49.8503 58.7095 49.4941C58.34 49.1312 57.7726 48.8607 57.0073 48.6826L54.4739 48.0888C53.0818 47.7589 52.0592 47.2476 51.406 46.5549C50.7595 45.8556 50.4362 44.9814 50.4362 43.9324C50.4362 43.0747 50.677 42.316 51.1586 41.6563C51.6469 40.9965 52.3099 40.4786 53.1478 40.1025C53.9923 39.7265 54.9489 39.5385 56.0177 39.5385C57.5219 39.5385 58.7029 39.8683 59.5606 40.5281C60.4248 41.1878 61.0384 42.0587 61.4013 43.1407ZM74.7736 48.7222V39.7364H77.1091V54.937H74.7736V52.364H74.6152C74.259 53.1359 73.7048 53.7923 72.9526 54.3333C72.2005 54.8677 71.2505 55.1349 70.1025 55.1349C69.1525 55.1349 68.308 54.9271 67.5691 54.5115C66.8302 54.0892 66.2496 53.4559 65.8273 52.6114C65.4051 51.7603 65.194 50.6882 65.194 49.3951V39.7364H67.5295V49.2368C67.5295 50.3452 67.8396 51.2292 68.4598 51.889C69.0865 52.5487 69.8848 52.8786 70.8546 52.8786C71.4352 52.8786 72.0257 52.7301 72.6261 52.4333C73.233 52.1364 73.741 51.6811 74.1501 51.0676C74.5657 50.454 74.7736 49.6722 74.7736 48.7222ZM83.7222 34.6695V54.937H81.3867V34.6695H83.7222ZM94.6106 39.7364V41.7156H86.7332V39.7364H94.6106ZM89.0291 36.0946H91.3646V50.5827C91.3646 51.2424 91.4603 51.7372 91.6516 52.0671C91.8495 52.3904 92.1002 52.6081 92.4037 52.7203C92.7138 52.8258 93.0404 52.8786 93.3834 52.8786C93.6407 52.8786 93.8519 52.8654 94.0168 52.839C94.1817 52.806 94.3137 52.7796 94.4127 52.7598L94.8877 54.8578C94.7293 54.9172 94.5083 54.9766 94.2246 55.036C93.9409 55.1019 93.5814 55.1349 93.1459 55.1349C92.4862 55.1349 91.8396 54.9931 91.2063 54.7094C90.5795 54.4257 90.0583 53.9936 89.6427 53.413C89.2336 52.8324 89.0291 52.1001 89.0291 51.216V36.0946ZM98.1237 54.937V39.7364H100.459V54.937H98.1237ZM99.3113 37.2029C98.8561 37.2029 98.4635 37.0479 98.1336 36.7378C97.8104 36.4277 97.6487 36.055 97.6487 35.6195C97.6487 35.1841 97.8104 34.8113 98.1336 34.5013C98.4635 34.1912 98.8561 34.0361 99.3113 34.0361C99.7665 34.0361 100.156 34.1912 100.479 34.5013C100.809 34.8113 100.974 35.1841 100.974 35.6195C100.974 36.055 100.809 36.4277 100.479 36.7378C100.156 37.0479 99.7665 37.2029 99.3113 37.2029ZM109.21 55.2933C108.247 55.2933 107.373 55.1118 106.588 54.749C105.802 54.3795 105.179 53.8484 104.717 53.1557C104.255 52.4564 104.024 51.6119 104.024 50.6222C104.024 49.7514 104.196 49.0454 104.539 48.5045C104.882 47.9569 105.341 47.528 105.915 47.2179C106.489 46.9079 107.122 46.6769 107.815 46.5252C108.514 46.3669 109.217 46.2415 109.923 46.1491C110.846 46.0304 111.595 45.9413 112.169 45.8819C112.75 45.816 113.172 45.7071 113.436 45.5554C113.706 45.4036 113.841 45.1397 113.841 44.7637V44.6845C113.841 43.7081 113.574 42.9494 113.04 42.4084C112.512 41.8674 111.71 41.5969 110.635 41.5969C109.52 41.5969 108.646 41.841 108.013 42.3292C107.379 42.8174 106.934 43.3386 106.677 43.8928L104.46 43.1011C104.856 42.1775 105.383 41.4583 106.043 40.9437C106.71 40.4225 107.435 40.0597 108.22 39.8551C109.012 39.644 109.791 39.5385 110.556 39.5385C111.044 39.5385 111.605 39.5978 112.238 39.7166C112.878 39.8287 113.495 40.063 114.089 40.4192C114.689 40.7755 115.187 41.3132 115.583 42.0323C115.979 42.7514 116.177 43.7147 116.177 44.922V54.937H113.841V52.8786H113.723C113.564 53.2085 113.3 53.5614 112.931 53.9375C112.562 54.3135 112.07 54.6335 111.456 54.8974C110.843 55.1613 110.094 55.2933 109.21 55.2933ZM109.566 53.1953C110.49 53.1953 111.268 53.0138 111.902 52.651C112.542 52.2881 113.023 51.8197 113.347 51.2457C113.677 50.6717 113.841 50.0681 113.841 49.4347V47.2971C113.742 47.4159 113.525 47.5247 113.188 47.6237C112.858 47.7161 112.476 47.7985 112.04 47.8711C111.612 47.9371 111.193 47.9964 110.784 48.0492C110.381 48.0954 110.054 48.135 109.804 48.168C109.197 48.2471 108.629 48.3758 108.102 48.5539C107.58 48.7255 107.158 48.9861 106.835 49.3357C106.518 49.6788 106.36 50.1472 106.36 50.741C106.36 51.5525 106.66 52.1661 107.26 52.5817C107.867 52.9908 108.636 53.1953 109.566 53.1953Z" fill="#3A3285"/>
<path d="M80.5138 33.4695C79.7015 8.22729 43.565 2.96971 36.5844 27.9979L35.8498 33.4695H15.8613C16.3624 -0.242706 62.0966 -13.2115 79.4728 16.8918C82.3867 21.9378 83.9117 27.6599 84.0747 33.4695H80.5138Z" fill="#3A3285"/>
<path d="M78.3489 33.4694C78.0254 20.396 58.6231 20.1406 58.2947 33.4694H47.4395C47.6194 14.7955 75.5323 12.2956 78.1932 31.4534L78.3416 33.4694H78.3465H78.3489Z" fill="#3A3285"/>
</svg>
