<svg width="16" height="16" viewBox="0 0 16 16" fill="none" xmlns="http://www.w3.org/2000/svg">
<path d="M14.2496 6.55C14.2496 6.55 13.4996 7.25 12.2246 8.075C11.8746 6.05 10.8996 3.55 8.99962 0.5C8.99962 0.5 8.37462 3.775 6.29962 6.85C5.39962 5.45 4.99962 4.35 4.99962 4.35C-1.50038 10.875 3.89962 15.5 7.29962 15.5C11.6496 15.5 15.4746 13.4 14.2496 6.55Z" fill="#FF9D33"/>
<path d="M11.6748 12.3502C12.0498 11.5252 12.3248 10.4502 12.3748 9.1002C12.3748 9.1002 11.8498 9.5502 10.9498 10.1252C10.6998 8.7752 10.0248 7.1252 8.6998 5.0752C8.6998 5.0752 8.2748 7.2502 6.8248 9.3252C6.1998 8.4002 5.9248 7.6502 5.9248 7.6502C4.8498 9.3502 4.4248 10.7002 4.3998 11.7752C3.7998 11.5502 3.4248 11.3752 3.4248 11.3752C4.4498 14.4252 6.57481 15.1002 7.52481 15.1002C9.2248 15.1002 10.9498 14.6002 12.6498 12.1752C12.6498 12.1502 12.2748 12.2502 11.6748 12.3502Z" fill="#FFCE31"/>
<path d="M5.47503 10.975C5.47503 10.975 6.17503 11.925 6.70003 11.7C6.70003 11.7 7.70003 10.125 9.15003 9.25C9.15003 9.25 8.85003 11.65 9.20003 12.075C9.65003 12.65 10.875 11.45 10.875 11.45C10.875 12.875 9.32503 14.65 7.92503 14.65C6.57503 14.65 4.62503 13.1 5.47503 10.975Z" fill="#FFDF85"/>
<path d="M12.4505 4.525C12.9755 3.775 13.3255 2.975 13.3255 2.975C14.2005 4.425 13.6755 5.3 13.3005 5.575C12.7755 5.975 11.8505 5.4 12.4505 4.525ZM2.90047 4.275C2.37547 3.4 2.32547 2.3 2.32547 2.3C1.07547 4.175 1.55047 5.225 1.97547 5.525C2.52547 5.95 3.47547 5.3 2.90047 4.275ZM5.80047 2.325C5.87547 1.725 5.62547 1.125 5.62547 1.125C6.80047 1.9 6.80047 2.55 6.65047 2.825C6.42547 3.15 5.72547 3 5.80047 2.325Z" fill="#FF9D33"/>
</svg>
