<svg width="24" height="24" viewBox="0 0 24 24" fill="none" xmlns="http://www.w3.org/2000/svg">
<path d="M9.57293 8.39099L9.5729 8.39096L9.57031 8.39338V2.5H14.4303V8.4C14.4303 8.40016 14.4303 8.40031 14.4303 8.40046C14.4294 8.4008 14.4286 8.401 14.428 8.40112C14.4276 8.40083 14.4272 8.40048 14.4267 8.40006L12.6811 6.7941C12.2993 6.43551 11.7022 6.4353 11.3202 6.79347L9.57293 8.39099Z" fill="white" stroke="white"/>
<path d="M16.9303 2.5607C16.9308 2.55977 16.9313 2.55878 16.932 2.55779C18.217 2.72128 19.0861 3.22674 19.6433 3.95299C20.2103 4.69209 20.5 5.71965 20.5 6.99989V16.9999C20.5 18.4232 20.1441 19.533 19.4461 20.2847C18.7543 21.0296 17.6547 21.4999 16 21.4999H8C6.3453 21.4999 5.24565 21.0296 4.5539 20.2847C3.85591 19.533 3.5 18.4232 3.5 16.9999V6.99989C3.5 5.71965 3.78965 4.69209 4.3567 3.95299C4.91388 3.22674 5.783 2.72127 7.06804 2.55779C7.06869 2.55878 7.06924 2.55977 7.06966 2.5607C7.06981 2.56102 7.06992 2.56129 7.07 2.5615V8.57989C7.07 9.53897 7.63779 10.4075 8.51754 10.7971L8.51863 10.7975C8.83586 10.9371 9.1649 10.9999 9.49 10.9999C10.0781 10.9999 10.6723 10.7875 11.1307 10.3559L11.9955 9.56066C11.9974 9.55898 11.9991 9.55777 12.0005 9.55692L12.0016 9.55794L12.8698 10.3563C12.8701 10.3566 12.8705 10.357 12.8709 10.3573C13.5796 11.0145 14.6005 11.1751 15.477 10.7995L15.477 10.7995L15.4825 10.7971C16.3622 10.4075 16.93 9.53897 16.93 8.57989V2.5615C16.9301 2.56129 16.9302 2.56102 16.9303 2.5607ZM9 19.2499H17.5C18.1861 19.2499 18.75 18.686 18.75 17.9999C18.75 17.3137 18.1861 16.7499 17.5 16.7499H9C8.31386 16.7499 7.75 17.3137 7.75 17.9999C7.75 18.686 8.31386 19.2499 9 19.2499ZM13.25 15.2499H17.5C18.1861 15.2499 18.75 14.686 18.75 13.9999C18.75 13.3137 18.1861 12.7499 17.5 12.7499H13.25C12.5639 12.7499 12 13.3137 12 13.9999C12 14.686 12.5639 15.2499 13.25 15.2499Z" fill="white" stroke="white"/>
</svg>
