<svg width="33" height="34" viewBox="0 0 33 34" fill="none" xmlns="http://www.w3.org/2000/svg">
<rect x="0.5" y="1" width="32" height="32" rx="16" stroke="#F0F0F9"/>
<path d="M16 7C13.38 7 11.25 9.13 11.25 11.75C11.25 14.32 13.26 16.4 15.88 16.49C15.96 16.48 16.04 16.48 16.1 16.49C16.12 16.49 16.13 16.49 16.15 16.49C16.16 16.49 16.16 16.49 16.17 16.49C18.73 16.4 20.74 14.32 20.75 11.75C20.75 9.13 18.62 7 16 7Z" fill="#A7A3DD"/>
<path d="M21.0809 19.1499C18.2909 17.2899 13.7409 17.2899 10.9309 19.1499C9.66094 19.9999 8.96094 21.1499 8.96094 22.3799C8.96094 23.6099 9.66094 24.7499 10.9209 25.5899C12.3209 26.5299 14.1609 26.9999 16.0009 26.9999C17.8409 26.9999 19.6809 26.5299 21.0809 25.5899C22.3409 24.7399 23.0409 23.5999 23.0409 22.3599C23.0309 21.1299 22.3409 19.9899 21.0809 19.1499Z" fill="#A7A3DD"/>
</svg>
