<svg width="24" height="25" viewBox="0 0 24 25" fill="none" xmlns="http://www.w3.org/2000/svg">
<path d="M5.40777 12.9274L5.4078 12.9274L5.41073 12.9224C5.5609 12.6659 5.69 12.3204 5.78129 11.9888C5.87247 11.6576 5.93923 11.292 5.93923 10.9898V9.1298C5.93923 5.77743 8.66404 3.05942 12.0199 3.0498C15.363 3.05018 18.0892 5.77568 18.0892 9.1298V10.9998C18.0892 11.3022 18.156 11.6681 18.2489 12.0006C18.3416 12.3323 18.4739 12.6797 18.6315 12.9387C18.6317 12.9392 18.632 12.9396 18.6323 12.9401L19.7594 14.8152C19.7596 14.8155 19.7598 14.8159 19.76 14.8162C20.0936 15.3783 20.1565 16.0393 19.9313 16.6436C19.7037 17.2445 19.2261 17.7141 18.6001 17.9258C17.5439 18.2778 16.4606 18.5508 15.3699 18.7261L15.3699 18.726L15.3598 18.7279C15.2459 18.7486 15.158 18.7642 15.074 18.7719L15.0554 18.7735L15.037 18.7766C14.8727 18.804 14.7062 18.8226 14.524 18.8429L14.524 18.8427L14.5117 18.8444C14.3059 18.8725 14.0883 18.8915 13.8559 18.9117L13.8559 18.9117L13.8511 18.9121C13.2474 18.9706 12.6335 18.9998 12.0192 18.9998C11.3948 18.9998 10.7706 18.9705 10.1566 18.9121L10.1566 18.9119L10.1462 18.9112C9.88957 18.8922 9.64262 18.8637 9.39526 18.8256L9.39527 18.8255L9.38531 18.8242C9.238 18.8046 9.09348 18.7853 8.95872 18.7661C8.89624 18.755 8.83572 18.7467 8.78587 18.7399L8.78178 18.7394C8.72501 18.7316 8.68097 18.7256 8.63867 18.7179L8.63868 18.7178L8.63358 18.717C7.54484 18.5306 6.47989 18.2763 5.42734 17.9254L5.42377 17.9243C4.76106 17.7089 4.27219 17.235 4.05818 16.6564L4.05739 16.6542C3.84779 16.0953 3.91557 15.4234 4.27897 14.8054L5.40777 12.9274ZM11.9892 11.7598C12.6854 11.7598 13.2492 11.1959 13.2492 10.4998V7.39981C13.2492 6.70366 12.6854 6.1398 11.9892 6.1398C11.2931 6.1398 10.7292 6.70366 10.7292 7.39981V10.4998C10.7292 11.1959 11.2931 11.7598 11.9892 11.7598Z" fill="#5B52B6" stroke="#5B52B6"/>
<path d="M14.8297 20.51C14.4097 21.67 13.2997 22.5 11.9997 22.5C11.2097 22.5 10.4297 22.18 9.87969 21.61C9.55969 21.31 9.31969 20.91 9.17969 20.5C9.30969 20.52 9.43969 20.53 9.57969 20.55C9.80969 20.58 10.0497 20.61 10.2897 20.63C10.8597 20.68 11.4397 20.71 12.0197 20.71C12.5897 20.71 13.1597 20.68 13.7197 20.63C13.9297 20.61 14.1397 20.6 14.3397 20.57C14.4997 20.55 14.6597 20.53 14.8297 20.51Z" fill="#5B52B6"/>
</svg>
