<svg width="37" height="37" viewBox="0 0 37 37" fill="none" xmlns="http://www.w3.org/2000/svg">
<rect width="37" height="37" rx="18.5" fill="#FFEAE8"/>
<path d="M17.1307 22.8799C16.8807 22.8799 16.6307 22.7499 16.4907 22.5199C16.2807 22.1699 16.3907 21.6999 16.7507 21.4899L17.6407 20.9599V19.8799C17.6407 19.4699 17.9807 19.1299 18.3907 19.1299C18.8007 19.1299 19.1407 19.4699 19.1407 19.8799V21.3799C19.1407 21.6399 19.0007 21.8899 18.7807 22.0199L17.5307 22.7699C17.3907 22.8399 17.2607 22.8799 17.1307 22.8799Z" fill="#FF8679"/>
<path d="M27.0891 13.98C26.2391 13.04 24.8291 12.57 22.7591 12.57H22.5191V12.53C22.5191 10.85 22.5191 8.77002 18.7591 8.77002H17.2391C13.4791 8.77002 13.4791 10.85 13.4791 12.53V12.57H13.2391C11.1691 12.57 9.74906 13.04 8.90906 13.98C7.91906 15.09 7.94906 16.56 8.04906 17.57L8.05906 17.64L8.12814 18.446C8.14134 18.5999 8.22488 18.7392 8.3546 18.8232C8.63829 19.0068 8.94012 19.1995 9.22906 19.36C9.36906 19.45 9.51906 19.53 9.66906 19.61C10.7991 20.23 12.0091 20.72 13.2491 21.06C13.2791 23.65 15.3991 25.75 17.9991 25.75C20.6191 25.75 22.7491 23.62 22.7491 21V20.96C24.0091 20.58 25.2191 20.05 26.3491 19.39C26.4091 19.36 26.4491 19.33 26.4991 19.3C26.8939 19.0854 27.3035 18.8045 27.6772 18.5395C27.7931 18.4573 27.868 18.3293 27.8837 18.1881L27.8991 18.05L27.9491 17.58C27.9591 17.52 27.9591 17.47 27.9691 17.4C28.0491 16.4 28.0291 15.02 27.0891 13.98ZM14.9091 12.53C14.9091 10.83 14.9091 10.19 17.2391 10.19H18.7591C21.0891 10.19 21.0891 10.83 21.0891 12.53V12.57H14.9091V12.53ZM17.9991 24.25C16.3491 24.25 14.9791 23.01 14.7791 21.41C14.7591 21.28 14.7491 21.14 14.7491 21C14.7491 19.21 16.2091 17.75 17.9991 17.75C19.7891 17.75 21.2491 19.21 21.2491 21C21.2491 21.12 21.2391 21.23 21.2291 21.34V21.35C21.0491 22.98 19.6691 24.25 17.9991 24.25Z" fill="#FF8679"/>
<path d="M27.0396 20.7301C27.2883 20.5919 27.611 20.7922 27.5851 21.0755L27.2296 24.9601C27.0196 26.9601 26.1996 29.0001 21.7996 29.0001H14.1796C9.77961 29.0001 8.95961 26.9601 8.75961 24.9701L8.41374 21.2668C8.38689 20.9793 8.6944 20.785 8.94961 20.9201C9.72961 21.3501 10.5396 21.7301 11.3696 22.0301C11.6796 22.1401 11.8996 22.4001 11.9896 22.7201C12.7396 25.3201 15.1596 27.2501 17.9996 27.2501C20.8896 27.2501 23.3296 25.2801 24.0396 22.5801C24.1196 22.2601 24.3396 22.0001 24.6496 21.8801C25.4896 21.5501 26.2896 21.1601 27.0396 20.7301Z" fill="#FF8679"/>
</svg>
