<svg width="25" height="25" viewBox="0 0 25 25" fill="none" xmlns="http://www.w3.org/2000/svg">
<path d="M13.4388 6.46387H5.65881C3.94881 6.46387 2.54883 7.86385 2.54883 9.57385V20.9339C2.54883 22.3839 3.58883 23.0039 4.85883 22.2939L8.78882 20.1039C9.20882 19.8739 9.88883 19.8739 10.2988 20.1039L14.2288 22.2939C15.4988 23.0039 16.5388 22.3839 16.5388 20.9339V9.57385C16.5488 7.86385 15.1488 6.46387 13.4388 6.46387Z" fill="white" stroke="white" stroke-width="1.24609" stroke-linecap="round" stroke-linejoin="round"/>
<path d="M16.5488 9.57385V20.9339C16.5488 22.3839 15.5088 22.9939 14.2388 22.2939L10.3088 20.1039C9.88884 19.8739 9.20882 19.8739 8.78882 20.1039L4.85883 22.2939C3.58883 22.9939 2.54883 22.3839 2.54883 20.9339V9.57385C2.54883 7.86385 3.94881 6.46387 5.65881 6.46387H13.4388C15.1488 6.46387 16.5488 7.86385 16.5488 9.57385Z" fill="white" stroke="#5B52B6" stroke-width="1.24609" stroke-linecap="round" stroke-linejoin="round"/>
<path d="M22.5488 5.69397V17.054C22.5488 18.504 21.5088 19.114 20.2388 18.414L16.5488 16.354V9.57397C16.5488 7.86397 15.1488 6.46399 13.4388 6.46399H8.54883V5.69397C8.54883 3.98397 9.94881 2.58398 11.6588 2.58398H19.4388C21.1488 2.58398 22.5488 3.98397 22.5488 5.69397Z" fill="white" stroke="#5B52B6" stroke-width="1.24609" stroke-linecap="round" stroke-linejoin="round"/>
</svg>
