<svg width="24" height="25" viewBox="0 0 24 25" fill="none" xmlns="http://www.w3.org/2000/svg">
<path d="M12.89 6.37988H5.11C3.4 6.37988 2 7.77988 2 9.48988V20.8499C2 22.2999 3.04 22.9199 4.31 22.2099L8.24 20.0199C8.66 19.7899 9.34 19.7899 9.75 20.0199L13.68 22.2099C14.96 22.9099 16 22.2999 16 20.8499V9.48988C16 7.77988 14.6 6.37988 12.89 6.37988Z" fill="#5B52B6"/>
<path d="M21.9998 5.61V16.97C21.9998 18.42 20.9598 19.03 19.6898 18.33L17.7598 17.25C17.5998 17.16 17.4998 16.99 17.4998 16.81V9.49C17.4998 6.95 15.4298 4.88 12.8898 4.88H8.81984C8.44984 4.88 8.18984 4.49 8.35984 4.17C8.87984 3.18 9.91984 2.5 11.1098 2.5H18.8898C20.5998 2.5 21.9998 3.9 21.9998 5.61Z" fill="#5B52B6"/>
</svg>
