<svg width="24" height="25" viewBox="0 0 24 25" fill="none" xmlns="http://www.w3.org/2000/svg">
<path d="M13.1202 17.5228L8.92129 15.2324C8.19135 16.0125 7.15261 16.5 6 16.5C3.79086 16.5 2 14.7091 2 12.5C2 10.2909 3.79086 8.5 6 8.5C7.15255 8.5 8.19125 8.98746 8.92118 9.76746L13.1202 7.47713C13.0417 7.16441 13 6.83707 13 6.5C13 4.29086 14.7909 2.5 17 2.5C19.2091 2.5 21 4.29086 21 6.5C21 8.70914 19.2091 10.5 17 10.5C15.8474 10.5 14.8087 10.0125 14.0787 9.23246L9.87977 11.5228C9.9583 11.8355 10 12.1629 10 12.5C10 12.8371 9.95831 13.1644 9.87981 13.4771L14.0788 15.7675C14.8087 14.9875 15.8474 14.5 17 14.5C19.2091 14.5 21 16.2909 21 18.5C21 20.7091 19.2091 22.5 17 22.5C14.7909 22.5 13 20.7091 13 18.5C13 18.1629 13.0417 17.8355 13.1202 17.5228ZM6 14.5C7.10457 14.5 8 13.6046 8 12.5C8 11.3954 7.10457 10.5 6 10.5C4.89543 10.5 4 11.3954 4 12.5C4 13.6046 4.89543 14.5 6 14.5ZM17 8.5C18.1046 8.5 19 7.60457 19 6.5C19 5.39543 18.1046 4.5 17 4.5C15.8954 4.5 15 5.39543 15 6.5C15 7.60457 15.8954 8.5 17 8.5ZM17 20.5C18.1046 20.5 19 19.6046 19 18.5C19 17.3954 18.1046 16.5 17 16.5C15.8954 16.5 15 17.3954 15 18.5C15 19.6046 15.8954 20.5 17 20.5Z" fill="#5B52B6"/>
</svg>
