<svg width="37" height="37" viewBox="0 0 37 37" fill="none" xmlns="http://www.w3.org/2000/svg">
<rect width="37" height="37" rx="18.5" fill="#EBE5FF"/>
<path d="M27.0891 13.98C26.2391 13.04 24.8191 12.57 22.7591 12.57H22.5191V12.53C22.5191 10.85 22.5191 8.77002 18.7591 8.77002H17.2391C13.4791 8.77002 13.4791 10.86 13.4791 12.53V12.58H13.2391C11.1691 12.58 9.75906 13.05 8.90906 13.99C7.91906 15.09 7.94906 16.57 8.04906 17.58L8.05906 17.65L8.13652 18.4633C8.15078 18.6131 8.23144 18.7484 8.35734 18.8307C8.59714 18.9877 8.99849 19.2464 9.23906 19.38C9.37906 19.47 9.52906 19.55 9.67906 19.63C11.3891 20.57 13.2691 21.2 15.1791 21.51C15.2691 22.45 15.6791 23.55 17.8691 23.55C20.0591 23.55 20.4891 22.46 20.5591 21.49C22.5991 21.16 24.5691 20.45 26.3491 19.41C26.4091 19.38 26.4491 19.35 26.4991 19.32C26.8958 19.0958 27.3074 18.8195 27.6825 18.5489C27.7955 18.4673 27.8678 18.3413 27.8832 18.2028L27.8991 18.06L27.9491 17.59C27.9591 17.53 27.9591 17.48 27.9691 17.41C28.0491 16.4 28.0291 15.02 27.0891 13.98ZM19.0891 20.83C19.0891 21.89 19.0891 22.05 17.8591 22.05C16.6291 22.05 16.6291 21.86 16.6291 20.84V19.58H19.0891V20.83ZM14.9091 12.57V12.53C14.9091 10.83 14.9091 10.2 17.2391 10.2H18.7591C21.0891 10.2 21.0891 10.84 21.0891 12.53V12.58H14.9091V12.57Z" fill="#5B52B6"/>
<path d="M26.8733 20.7344C27.2269 20.5661 27.6342 20.8464 27.5988 21.2364L27.2398 25.1902C27.0298 27.1902 26.2098 29.2302 21.8098 29.2302H14.1898C9.78984 29.2302 8.96984 27.1902 8.75984 25.2002L8.41913 21.4524C8.38409 21.0669 8.78205 20.787 9.13468 20.9465C10.2741 21.462 12.3772 22.3766 13.6764 22.7169C13.8407 22.7599 13.9736 22.8775 14.0456 23.0314C14.6525 24.3295 15.969 25.0202 17.8698 25.0202C19.752 25.0202 21.085 24.3029 21.694 23.0016C21.766 22.8476 21.8991 22.7301 22.0635 22.6868C23.443 22.3238 25.6816 21.3015 26.8733 20.7344Z" fill="#5B52B6"/>
</svg>
