<svg width="37" height="37" viewBox="0 0 37 37" fill="none" xmlns="http://www.w3.org/2000/svg">
<rect width="37" height="37" rx="18.5" fill="#EBE5FF"/>
<path d="M17.9392 9.20983L15.5292 14.8198H13.1192C12.7192 14.8198 12.3292 14.8498 11.9492 14.9298L12.9492 12.5298L12.9892 12.4398L13.0492 12.2798C13.0792 12.2098 13.0992 12.1498 13.1292 12.0998C14.2892 9.40983 15.5892 8.56983 17.9392 9.20983Z" fill="#399AF9"/>
<path d="M24.7291 15.09L24.7091 15.08C24.1091 14.91 23.4991 14.82 22.8791 14.82H16.6191L18.8691 9.59002L18.8991 9.52002C19.0391 9.57002 19.1891 9.64002 19.3391 9.69002L21.5491 10.62C22.7791 11.13 23.6391 11.66 24.1691 12.3C24.2591 12.42 24.3391 12.53 24.4191 12.66C24.5091 12.8 24.5791 12.94 24.6191 13.09C24.6591 13.18 24.6891 13.26 24.7091 13.35C24.8591 13.86 24.8691 14.44 24.7291 15.09Z" fill="#399AF9"/>
<path d="M18.5195 24.6601H18.7695C19.0695 24.6601 19.3195 24.3901 19.3195 24.0601C19.3195 23.6401 19.1995 23.5801 18.9395 23.4801L18.5195 23.3301V24.6601Z" fill="#399AF9"/>
<path d="M24.2902 16.5198C23.8402 16.3898 23.3702 16.3198 22.8802 16.3198H13.1202C12.4402 16.3198 11.8002 16.4498 11.2002 16.7098C9.46023 17.4598 8.24023 19.1898 8.24023 21.1998V23.1498C8.24023 23.3898 8.26023 23.6198 8.29023 23.8598C8.51023 27.0398 10.2102 28.7398 13.3902 28.9498C13.6202 28.9798 13.8502 28.9998 14.1002 28.9998H21.9002C25.6002 28.9998 27.5502 27.2398 27.7402 23.7398C27.7502 23.5498 27.7602 23.3498 27.7602 23.1498V21.1998C27.7602 18.9898 26.2902 17.1298 24.2902 16.5198ZM19.2802 22.4998C19.7402 22.6598 20.3602 22.9998 20.3602 24.0598C20.3602 24.9698 19.6502 25.6998 18.7702 25.6998H18.5202V25.9198C18.5202 26.2098 18.2902 26.4398 18.0002 26.4398C17.7102 26.4398 17.4802 26.2098 17.4802 25.9198V25.6998H17.3902C16.4302 25.6998 15.6402 24.8898 15.6402 23.8898C15.6402 23.5998 15.8702 23.3698 16.1602 23.3698C16.4502 23.3698 16.6802 23.5998 16.6802 23.8898C16.6802 24.3098 17.0002 24.6598 17.3902 24.6598H17.4802V22.9698L16.7202 22.6998C16.2602 22.5398 15.6402 22.1998 15.6402 21.1398C15.6402 20.2298 16.3502 19.4998 17.2302 19.4998H17.4802V19.2798C17.4802 18.9898 17.7102 18.7598 18.0002 18.7598C18.2902 18.7598 18.5202 18.9898 18.5202 19.2798V19.4998H18.6102C19.5702 19.4998 20.3602 20.3098 20.3602 21.3098C20.3602 21.5998 20.1302 21.8298 19.8402 21.8298C19.5502 21.8298 19.3202 21.5998 19.3202 21.3098C19.3202 20.8898 19.0002 20.5398 18.6102 20.5398H18.5202V22.2298L19.2802 22.4998Z" fill="#399AF9"/>
<path d="M16.6797 21.14C16.6797 21.56 16.7997 21.62 17.0597 21.72L17.4797 21.87V20.54H17.2297C16.9197 20.54 16.6797 20.81 16.6797 21.14Z" fill="#399AF9"/>
</svg>
