<svg width="112" height="112" viewBox="0 0 112 112" fill="none" xmlns="http://www.w3.org/2000/svg">
<rect width="112" height="112" rx="56" fill="#F1F1F1"/>
<path d="M56.0007 21.834C47.049 21.834 39.7715 29.1115 39.7715 38.0632C39.7715 46.844 46.639 53.9506 55.5907 54.2581C55.864 54.224 56.1373 54.224 56.3423 54.2581C56.4107 54.2581 56.4448 54.2581 56.5131 54.2581C56.5473 54.2581 56.5473 54.2581 56.5815 54.2581C65.3281 53.9506 72.1956 46.844 72.2298 38.0632C72.2298 29.1115 64.9523 21.834 56.0007 21.834Z" fill="#A7A3DD"/>
<path d="M73.3592 63.3483C63.8267 56.9933 48.2809 56.9933 38.6801 63.3483C34.3409 66.2524 31.9492 70.1816 31.9492 74.3841C31.9492 78.5866 34.3409 82.4816 38.6459 85.3516C43.4292 88.5633 49.7159 90.1691 56.0026 90.1691C62.2892 90.1691 68.5759 88.5633 73.3592 85.3516C77.6642 82.4474 80.0559 78.5525 80.0559 74.3158C80.0217 70.1133 77.6642 66.2183 73.3592 63.3483Z" fill="#A7A3DD"/>
</svg>
